<?xml version="1.0" encoding="UTF-8" standalone="no"?>
<!DOCTYPE svg PUBLIC "-//W3C//DTD SVG 1.1//EN" "http://www.w3.org/Graphics/SVG/1.1/DTD/svg11.dtd">
<svg version="1.1" xmlns="http://www.w3.org/2000/svg" xmlns:xlink="http://www.w3.org/1999/xlink" preserveAspectRatio="xMidYMid meet" viewBox="0 0 640 640" width="640" height="640"><defs><path d="M2.71 32C2.32 32 2 31.68 2 31.29C2 28.43 2 5.57 2 2.71C2 2.32 2.32 2 2.71 2C5.57 2 28.43 2 31.29 2C31.68 2 32 2.32 32 2.71C32 5.57 32 28.43 32 31.29C32 31.68 31.68 32 31.29 32C25.57 32 5.57 32 2.71 32Z" id="gje92OtY8"></path><path d="M3.36 31.64L11.42 18.01" id="iruUOXCQF"></path><path d="M19.73 31.64L11.67 18.01" id="aqs0fiZID"></path><path d="M21.09 30.96L25.79 24.14" id="a1H5Ciqacs"></path><path d="M30.64 30.96L25.93 24.14" id="a8cM5NLVqx"></path><path d="M22.45 16.64C20.2 16.64 18.36 14.81 18.36 12.55C18.36 10.29 20.2 8.46 22.45 8.46C24.71 8.46 26.55 10.29 26.55 12.55C26.55 12.55 26.55 12.55 26.55 12.55C25.32 15.28 23.96 16.64 22.45 16.64Z" id="aylKfjjQr"></path><path d="M2 31.29C2 28.43 2 5.57 2 2.71C2 2.32 2.32 2 2.71 2C5.57 2 28.43 2 31.29 2C31.68 2 32 2.32 32 2.71C32 5.57 32 28.43 32 31.29C32 31.68 31.68 32 31.29 32C25.57 32 5.57 32 2.71 32C2.32 32 2 31.68 2 31.29Z" id="cVhcZOyfM"></path><path d="M2 31.29C2 28.43 2 5.57 2 2.71C2 2.32 2.32 2 2.71 2C5.57 2 28.43 2 31.29 2C31.68 2 32 2.32 32 2.71C32 5.57 32 28.43 32 31.29C32 31.68 31.68 32 31.29 32C25.57 32 5.57 32 2.71 32C2.32 32 2 31.68 2 31.29Z" id="i1eTUqVv2Z"></path><path d="M3.36 31.64L11.42 18.01" id="grx3j2m8Z"></path><path d="M3.36 31.64L11.42 18.01" id="af5UzdzoY"></path><path d="M19.73 31.64L11.67 18.01" id="aB79hgDDG"></path><path d="M19.73 31.64L11.67 18.01" id="azMq5DN6m"></path><path d="M21.09 30.96L25.79 24.14" id="d1ZB5wE8iC"></path><path d="M21.09 30.96L25.79 24.14" id="a1a8wz7V1j"></path><path d="M30.64 30.96L25.93 24.14" id="crqzCYpO5"></path><path d="M30.64 30.96L25.93 24.14" id="bUdgGBd8q"></path><path d="M18.36 12.55C18.36 10.29 20.2 8.46 22.45 8.46C24.71 8.46 26.55 10.29 26.55 12.55C26.55 12.55 26.55 12.55 26.55 12.55C25.32 15.28 23.96 16.64 22.45 16.64C20.2 16.64 18.36 14.81 18.36 12.55Z" id="i1wFIn6Wba"></path><path d="M18.36 12.55C18.36 10.29 20.2 8.46 22.45 8.46C24.71 8.46 26.55 10.29 26.55 12.55C26.55 12.55 26.55 12.55 26.55 12.55C25.32 15.28 23.96 16.64 22.45 16.64C20.2 16.64 18.36 14.81 18.36 12.55Z" id="c5ejECBOU"></path></defs><g><g><g><use xlink:href="#gje92OtY8" opacity="1" fill="#0275d8" fill-opacity="1"></use><g><use xlink:href="#gje92OtY8" opacity="1" fill-opacity="0" stroke="#ffffff" stroke-width="3" stroke-opacity="1"></use></g></g><g><use xlink:href="#iruUOXCQF" opacity="1" fill="#0275d8" fill-opacity="1"></use><g><use xlink:href="#iruUOXCQF" opacity="1" fill-opacity="0" stroke="#ffffff" stroke-width="3" stroke-opacity="1"></use></g></g><g><use xlink:href="#aqs0fiZID" opacity="1" fill="#0275d8" fill-opacity="1"></use><g><use xlink:href="#aqs0fiZID" opacity="1" fill-opacity="0" stroke="#ffffff" stroke-width="3" stroke-opacity="1"></use></g></g><g><use xlink:href="#a1H5Ciqacs" opacity="1" fill="#0275d8" fill-opacity="1"></use><g><use xlink:href="#a1H5Ciqacs" opacity="1" fill-opacity="0" stroke="#ffffff" stroke-width="3" stroke-opacity="1"></use></g></g><g><use xlink:href="#a8cM5NLVqx" opacity="1" fill="#0275d8" fill-opacity="1"></use><g><use xlink:href="#a8cM5NLVqx" opacity="1" fill-opacity="0" stroke="#ffffff" stroke-width="3" stroke-opacity="1"></use></g></g><g><use xlink:href="#aylKfjjQr" opacity="1" fill="#0275d8" fill-opacity="1"></use><g><use xlink:href="#aylKfjjQr" opacity="1" fill-opacity="0" stroke="#ffffff" stroke-width="3" stroke-opacity="1"></use></g></g><g><use xlink:href="#cVhcZOyfM" opacity="1" fill="#0275d8" fill-opacity="1"></use><g><use xlink:href="#cVhcZOyfM" opacity="1" fill-opacity="0" stroke="#ffffff" stroke-width="1" stroke-opacity="1"></use></g></g><g><use xlink:href="#i1eTUqVv2Z" opacity="1" fill="#0275d8" fill-opacity="1"></use><g><use xlink:href="#i1eTUqVv2Z" opacity="1" fill-opacity="0" stroke="#ffffff" stroke-width="3" stroke-opacity="1"></use></g></g><g><use xlink:href="#grx3j2m8Z" opacity="1" fill="#0275d8" fill-opacity="1"></use><g><use xlink:href="#grx3j2m8Z" opacity="1" fill-opacity="0" stroke="#ffffff" stroke-width="1" stroke-opacity="1"></use></g></g><g><use xlink:href="#af5UzdzoY" opacity="1" fill="#0275d8" fill-opacity="1"></use><g><use xlink:href="#af5UzdzoY" opacity="1" fill-opacity="0" stroke="#ffffff" stroke-width="3" stroke-opacity="1"></use></g></g><g><use xlink:href="#aB79hgDDG" opacity="1" fill="#0275d8" fill-opacity="1"></use><g><use xlink:href="#aB79hgDDG" opacity="1" fill-opacity="0" stroke="#ffffff" stroke-width="1" stroke-opacity="1"></use></g></g><g><use xlink:href="#azMq5DN6m" opacity="1" fill="#0275d8" fill-opacity="1"></use><g><use xlink:href="#azMq5DN6m" opacity="1" fill-opacity="0" stroke="#ffffff" stroke-width="3" stroke-opacity="1"></use></g></g><g><use xlink:href="#d1ZB5wE8iC" opacity="1" fill="#0275d8" fill-opacity="1"></use><g><use xlink:href="#d1ZB5wE8iC" opacity="1" fill-opacity="0" stroke="#ffffff" stroke-width="1" stroke-opacity="1"></use></g></g><g><use xlink:href="#a1a8wz7V1j" opacity="1" fill="#0275d8" fill-opacity="1"></use><g><use xlink:href="#a1a8wz7V1j" opacity="1" fill-opacity="0" stroke="#ffffff" stroke-width="3" stroke-opacity="1"></use></g></g><g><use xlink:href="#crqzCYpO5" opacity="1" fill="#0275d8" fill-opacity="1"></use><g><use xlink:href="#crqzCYpO5" opacity="1" fill-opacity="0" stroke="#ffffff" stroke-width="1" stroke-opacity="1"></use></g></g><g><use xlink:href="#bUdgGBd8q" opacity="1" fill="#0275d8" fill-opacity="1"></use><g><use xlink:href="#bUdgGBd8q" opacity="1" fill-opacity="0" stroke="#ffffff" stroke-width="3" stroke-opacity="1"></use></g></g><g><use xlink:href="#i1wFIn6Wba" opacity="1" fill="#0275d8" fill-opacity="1"></use><g><use xlink:href="#i1wFIn6Wba" opacity="1" fill-opacity="0" stroke="#ffffff" stroke-width="1" stroke-opacity="1"></use></g></g><g><use xlink:href="#c5ejECBOU" opacity="1" fill="#0275d8" fill-opacity="1"></use><g><use xlink:href="#c5ejECBOU" opacity="1" fill-opacity="0" stroke="#ffffff" stroke-width="3" stroke-opacity="1"></use></g></g></g></g></svg>